<?xml version="1.0" encoding="UTF-8" standalone="no"?><!DOCTYPE svg PUBLIC "-//W3C//DTD SVG 1.1//EN" "http://www.w3.org/Graphics/SVG/1.1/DTD/svg11.dtd"><svg width="100%" height="100%" viewBox="0 0 350 120" version="1.1" xmlns="http://www.w3.org/2000/svg" xmlns:xlink="http://www.w3.org/1999/xlink" xml:space="preserve" style="fill-rule:evenodd;clip-rule:evenodd;stroke-linejoin:round;stroke-miterlimit:1.41421;"><rect id="ArtBoard2" x="0" y="0" width="350" height="120" style="fill:none;"/><g><rect x="112.627" y="22" width="8.776" height="71.642" style="fill:#0062a1;"/><path d="M116.03,51.373l-1.97,1.433l0.716,-2.328l-1.97,-1.433l2.328,0l0.717,-2.329l0.716,2.329l2.329,0l-1.971,1.433l0.717,2.328l-1.612,-1.433l0,0Z" style="fill:#fbbd1a;fill-rule:nonzero;"/><path d="M118.179,59.612l-1.97,1.433l0.716,-2.329l-1.97,-1.432l2.329,0l0.716,-2.329l0.716,2.329l2.687,0l-1.97,1.432l0.716,2.329l-1.97,-1.433l0,0Z" style="fill:#fbbd1a;fill-rule:nonzero;"/><path d="M116.03,68.03l-1.97,1.433l0.716,-2.329l-1.97,-1.433l2.328,0l0.717,-2.328l0.716,2.328l2.329,0l-1.971,1.433l0.717,2.329l-1.612,-1.433l0,0Z" style="fill:#fbbd1a;fill-rule:nonzero;"/><path d="M100.269,42.06l-1.97,-1.433l2.328,0l0.716,-2.328l0.717,2.328l2.328,0l-1.97,1.433l0.716,2.328l-1.97,-1.433l-1.97,1.433l1.075,-2.328l0,0Z" style="fill:#fbbd1a;fill-rule:nonzero;"/><g><path d="M109.403,45.104l-1.97,1.433l0.716,-2.328l-1.97,-1.433l2.328,0l0.717,-2.328l0.716,2.328l2.329,0l-1.612,1.433l0.716,2.328l-1.97,-1.433l0,0Z" style="fill:#fbbd1a;fill-rule:nonzero;"/><path d="M109.403,73.94l-1.97,1.433l0.716,-2.328l-1.97,-1.433l2.328,0l0.717,-2.328l0.716,2.328l2.329,0l-1.612,1.433l0.716,2.328l-1.97,-1.433l0,0Z" style="fill:#fbbd1a;fill-rule:nonzero;"/></g><path d="M101.522,76.269l-1.97,1.253l0.717,-2.328l-1.791,-1.254l2.328,0l0.716,-2.328l0.717,2.328l2.328,0l-1.97,1.433l0.896,2.149l-1.971,-1.253l0,0Z" style="fill:#fbbd1a;fill-rule:nonzero;"/><path d="M87.373,51.194l-1.97,1.433l0.716,-2.328l-1.97,-1.433l2.329,0l0.716,-2.329l0.716,2.329l2.329,0l-1.97,1.433l0.716,2.328l-1.612,-1.433l0,0Z" style="fill:#fbbd1a;fill-rule:nonzero;"/><path d="M85.045,59.612l-1.97,1.433l0.716,-2.329l-1.791,-1.432l2.328,0l0.717,-2.329l0.716,2.329l2.329,0l-1.971,1.432l0.717,2.329l-1.791,-1.433l0,0Z" style="fill:#fbbd1a;fill-rule:nonzero;"/><path d="M87.373,67.672l-1.97,1.432l0.716,-2.328l-1.97,-1.433l2.329,0l0.895,-2.149l0.717,2.328l2.328,0l-1.97,1.433l0.716,2.329l-1.791,-1.612l0,0Z" style="fill:#fbbd1a;fill-rule:nonzero;"/><path d="M93.284,45.284l-1.971,1.432l0.717,-2.328l-1.97,-1.433l2.328,0l0.716,-2.328l0.717,2.328l2.328,0l-1.612,1.433l0.717,2.328l-1.97,-1.432l0,0Z" style="fill:#fbbd1a;fill-rule:nonzero;"/><path d="M93.463,73.94l-1.97,1.433l0.716,-2.328l-1.97,-1.433l2.328,0l0.717,-2.328l0.716,2.328l2.328,0l-1.791,1.433l0.717,2.328l-1.791,-1.433l0,0Z" style="fill:#fbbd1a;fill-rule:nonzero;"/><path d="M133.224,54.955l-2.866,0l0,-16.477l3.761,0c5.374,0 8.418,2.865 8.418,8.238c0,5.911 -3.94,8.239 -9.313,8.239Zm0.895,-15.224l-2.328,0l0,13.791l1.433,0c4.836,0 7.88,-1.791 7.88,-6.806c0,-4.298 -2.507,-6.985 -6.985,-6.985Z" style="fill:#010000;fill-rule:nonzero;"/><path d="M145.582,54.955l0,-16.477l7.881,0l0,1.253l-6.448,0l0,6.09l6.089,0l0,1.254l-6.089,0l0,6.447l6.627,0l0,1.254l-8.06,0l0,0.179Z" style="fill:#010000;fill-rule:nonzero;"/><path d="M162.776,55.134c-3.761,0 -5.91,-2.328 -5.91,-6.089l0,-10.746l1.433,0l0,10.746c0,2.686 1.611,4.656 4.477,4.656c2.866,0 4.478,-1.791 4.478,-4.656l0,-10.746l1.433,0l0,10.746c0,3.761 -2.15,6.089 -5.911,6.089Z" style="fill:#010000;fill-rule:nonzero;"/><path d="M177.284,39.731l0,15.224l-1.433,0l0,-15.224l-4.836,0l0,-1.253l11.104,0l0,1.253l-4.835,0Z" style="fill:#010000;fill-rule:nonzero;"/><path d="M187.313,55.134c-1.253,0 -2.507,-0.179 -3.582,-0.716l0.179,-1.612c1.075,0.716 2.329,0.895 3.583,0.895c2.149,0 3.761,-1.074 3.761,-3.223c0,-1.612 -1.433,-2.508 -2.866,-3.224l-1.791,-0.896c-1.612,-0.895 -2.866,-1.97 -2.866,-3.94c0,-2.866 2.508,-4.299 5.194,-4.299c1.075,0 2.15,0.18 3.045,0.538l-0.179,1.433c-0.895,-0.538 -1.97,-0.538 -3.045,-0.538c-1.791,0 -3.582,0.717 -3.582,2.687c0,1.254 1.075,2.149 2.508,2.865l1.791,0.896c1.791,0.896 3.403,2.149 3.403,4.299c-0.179,3.223 -2.687,4.835 -5.553,4.835l0,0Z" style="fill:#010000;fill-rule:nonzero;"/><path d="M203.433,55.134c-5.194,0 -8.239,-3.403 -8.239,-8.418c0,-4.835 3.403,-8.417 8.239,-8.417c1.074,0 2.686,0.179 3.761,0.716l-0.179,1.433c-1.075,-0.538 -2.508,-0.717 -3.761,-0.717c-4.299,0 -6.806,3.045 -6.806,7.165c0,4.119 2.328,7.164 6.806,7.164c1.253,0 2.686,-0.179 3.761,-0.717l0.179,1.433c-0.895,0.179 -2.507,0.358 -3.761,0.358l0,0Z" style="fill:#010000;fill-rule:nonzero;"/><path d="M220.448,54.955l0,-7.88l-8.418,0l0,7.88l-1.433,0l0,-16.477l1.433,0l0,7.343l8.418,0l0,-7.343l1.433,0l0,16.477l-1.433,0l0,0Z" style="fill:#010000;fill-rule:nonzero;"/><path d="M226.179,54.955l0,-16.477l7.881,0l0,1.253l-6.448,0l0,6.09l6.089,0l0,1.254l-6.089,0l0,6.447l6.627,0l0,1.254l-8.06,0l0,0.179Z" style="fill:#010000;fill-rule:nonzero;"/><path d="M133.403,77.522l-3.045,0l0,-16.477l3.761,0c2.687,0 5.194,0.895 5.194,4.119c0,1.97 -1.253,3.224 -3.044,3.761c2.149,0.359 3.582,1.791 3.582,3.941c0,3.761 -3.224,4.656 -6.448,4.656l0,0Zm0.716,-15.044l-2.328,0l0,5.91l1.791,0c2.149,0 4.119,-0.716 4.119,-3.224c0,-2.149 -1.791,-2.686 -3.582,-2.686Zm-0.895,7.164l-1.433,0l0,6.627l1.791,0c2.149,0 4.657,-0.538 4.657,-3.224c0,-2.866 -2.687,-3.403 -5.015,-3.403l0,0Z" style="fill:#010000;fill-rule:nonzero;"/><path d="M148.627,77.881c-3.761,0 -5.911,-2.329 -5.911,-6.09l0,-10.746l1.433,0l0,10.746c0,2.687 1.612,4.657 4.478,4.657c2.866,0 4.477,-1.791 4.477,-4.657l0,-10.746l1.433,0l0,10.746c0,3.761 -2.328,6.09 -5.91,6.09Z" style="fill:#010000;fill-rule:nonzero;"/><path d="M168.507,77.522l-8.417,-14.686l0,14.686l-1.433,0l0,-16.477l1.97,0l8.418,14.686l0,-14.686l1.433,0l0,16.477l-1.971,0Z" style="fill:#010000;fill-rule:nonzero;"/><path d="M177.642,77.522l-2.866,0l0,-16.477l3.94,0c5.374,0 8.418,2.865 8.418,8.239c0,6.089 -3.94,8.238 -9.492,8.238l0,0Zm1.074,-15.044l-2.328,0l0,13.791l1.433,0c4.836,0 7.88,-1.791 7.88,-6.806c-0.179,-4.478 -2.686,-6.985 -6.985,-6.985l0,0Z" style="fill:#010000;fill-rule:nonzero;"/><path d="M190.716,77.522l0,-16.477l7.881,0l0,1.254l-6.448,0l0,6.089l6.09,0l0,1.254l-6.09,0l0,6.448l6.627,0l0,1.432l-8.06,0l0,0Z" style="fill:#010000;fill-rule:nonzero;"/><path d="M205.045,77.881c-1.254,0 -2.508,-0.18 -3.582,-0.717l0.179,-1.612c1.074,0.717 2.328,0.896 3.582,0.896c2.149,0 3.761,-1.075 3.761,-3.224c0,-1.612 -1.433,-2.508 -2.866,-3.224l-1.612,-0.896c-1.611,-0.895 -2.865,-1.97 -2.865,-3.94c0,-2.865 2.507,-4.298 5.194,-4.298c1.074,0 2.149,0.179 3.045,0.537l-0.18,1.433c-0.895,-0.537 -1.97,-0.537 -3.044,-0.537c-1.791,0 -3.582,0.716 -3.582,2.686c0,1.254 1.074,2.149 2.507,2.866l1.791,0.895c1.791,0.896 3.403,2.15 3.403,4.299c-0.537,3.224 -2.866,4.836 -5.731,4.836l0,0Z" style="fill:#010000;fill-rule:nonzero;"/><path d="M216.687,77.522l-3.045,0l0,-16.477l3.761,0c2.687,0 5.194,0.895 5.194,4.119c0,1.97 -1.254,3.224 -3.045,3.761c2.149,0.359 3.582,1.791 3.582,3.941c0,3.761 -3.224,4.656 -6.447,4.656l0,0Zm0.716,-15.044l-2.328,0l0,5.91l1.791,0c2.149,0 4.119,-0.716 4.119,-3.224c0,-2.149 -1.612,-2.686 -3.582,-2.686Zm-0.896,7.164l-1.432,0l0,6.627l1.791,0c2.149,0 4.656,-0.538 4.656,-3.224c0,-2.866 -2.686,-3.403 -5.015,-3.403l0,0Z" style="fill:#010000;fill-rule:nonzero;"/><path d="M238,77.522l-1.791,-4.656l-8.418,0l-1.791,4.656l-1.433,0l6.627,-16.477l1.612,0l6.806,16.477l-1.612,0Zm-5.91,-15.044l-3.762,9.134l7.344,0l-3.582,-9.134Z" style="fill:#010000;fill-rule:nonzero;"/><path d="M251.791,77.522l-8.418,-14.686l0,14.686l-1.433,0l0,-16.477l1.97,0l8.418,14.686l0,-14.686l1.433,0l0,16.477l-1.97,0Z" style="fill:#010000;fill-rule:nonzero;"/><path d="M267.731,77.522l-8.059,-8.238l0,8.238l-1.433,0l0,-16.477l1.433,0l0,7.522l7.522,-7.522l1.97,0l-8.06,7.701l8.777,8.776l-2.15,0Z" style="fill:#010000;fill-rule:nonzero;"/><g><path d="M158.836,88.627c0,-3.224 1.97,-5.194 4.657,-5.194c2.686,0 4.477,2.149 4.477,5.015c0,3.403 -2.149,5.194 -4.657,5.194c-2.686,0 -4.477,-1.97 -4.477,-5.015l0,0Zm4.477,3.94c1.971,0 3.045,-1.791 3.045,-3.94c0,-1.97 -1.074,-3.94 -3.045,-3.94c-1.97,0 -3.044,1.791 -3.044,3.94c0,2.149 1.074,3.94 3.044,3.94Z" style="fill:#010000;fill-rule:nonzero;"/><path d="M138.955,89.522l0,-5.91l1.433,0l0,5.91c0,2.15 0.896,3.045 2.149,3.045c1.433,0 2.329,-0.895 2.329,-3.045l0,-5.91l1.612,0l0,5.731c0,3.045 -1.612,4.299 -3.762,4.299c-2.149,0 -3.761,-1.075 -3.761,-4.12l0,0Z" style="fill:#010000;fill-rule:nonzero;"/><path d="M155.075,93.463c-0.179,-0.359 -0.359,-1.254 -0.717,-2.329c-0.358,-1.433 -0.716,-1.791 -1.97,-1.791l-1.075,0l0,4.299l-1.432,0l0,-9.672c0.716,-0.179 1.612,-0.179 2.507,-0.179c1.433,0 2.328,0.179 2.866,0.896c0.537,0.537 0.716,1.074 0.716,1.97c0,1.253 -0.716,2.149 -1.791,2.507c0.717,0.358 1.075,1.075 1.433,1.97c0.358,1.433 0.537,2.329 0.716,2.687l0,0.179l-1.253,0l0,-0.537l0,0Zm-2.508,-5.194c1.254,0 2.149,-0.717 2.149,-1.791c0,-1.254 -0.895,-1.791 -2.149,-1.791c-0.537,0 -0.895,0 -1.254,0.179l0,3.403l1.254,0Z" style="fill:#010000;fill-rule:nonzero;"/><path d="M181.224,93.463l0,-4.12l-3.224,-5.731l1.612,0l1.433,2.687c0.358,0.716 0.716,1.253 0.895,1.97c0.179,-0.538 0.538,-1.254 0.896,-1.97l1.433,-2.687l1.612,0l-3.403,5.731l0,4.299l-1.254,0l0,-0.179Z" style="fill:#010000;fill-rule:nonzero;"/><path d="M187.493,93.104l0.179,-1.253l0,-0.179c0.537,0.358 1.432,0.716 2.149,0.716c1.254,0 1.97,-0.716 1.97,-1.612c0,-0.895 -0.537,-1.433 -1.791,-1.791c-1.612,-0.537 -2.687,-1.433 -2.687,-2.866c0,-1.612 1.254,-2.686 3.224,-2.686c1.075,0 1.791,0.179 2.15,0.537l-0.359,1.254c-0.358,-0.179 -0.895,-0.537 -1.791,-0.537c-1.253,0 -1.791,0.716 -1.791,1.432c0,0.896 0.538,1.254 1.97,1.791c1.612,0.717 2.508,1.433 2.508,2.866c0,1.612 -1.075,2.866 -3.582,2.866c-0.538,0 -1.612,-0.179 -2.149,-0.538l0,0Z" style="fill:#010000;fill-rule:nonzero;"/><path d="M198.239,93.463l0,-8.776l-3.045,0l0,-1.254l7.343,0l0,1.254l-3.044,0l0,8.776l-1.254,0l0,0Z" style="fill:#010000;fill-rule:nonzero;"/><path d="M204.866,93.463l0,-10.03l5.373,0l0,1.254l-3.94,0l0,2.865l3.761,0l0,1.075l-3.761,0l0,3.403l4.298,0l0,1.254l-5.731,0l0,0.179Z" style="fill:#010000;fill-rule:nonzero;"/><path d="M222.35,93.4l-0.29,-4.509c0,-1.234 -0.179,-2.645 -0.179,-3.88c-0.359,1.058 -0.773,2.117 -1.131,3.351l-1.735,4.762l-1.075,0l-1.612,-4.585c-0.358,-1.235 -0.716,-2.293 -1.074,-3.351c0,1.234 -0.179,2.645 -0.179,3.88l-0.359,4.332l-1.316,0l0.716,-9.976l1.675,0l1.612,4.762c0.358,1.058 0.818,2.116 0.997,2.998c0.179,-0.882 0.592,-1.94 0.95,-2.998l1.737,-4.762l1.913,0l0.611,9.976l-1.261,0Z" style="fill:#010000;fill-rule:nonzero;"/><path d="M130.358,93.463l0,-10.03l5.373,0l0,1.254l-3.94,0l0,2.865l3.761,0l0,1.075l-3.761,0l0,3.403l4.299,0l0,1.254l-5.732,0l0,0.179Z" style="fill:#010000;fill-rule:nonzero;"/><path d="M170.299,93.104l0.358,-1.074l0,-0.179c0.537,0.358 1.433,0.716 2.149,0.716c1.254,0 1.97,-0.716 1.97,-1.612c0,-0.895 -0.537,-1.433 -1.791,-1.791c-1.612,-0.537 -2.686,-1.433 -2.686,-2.865c0,-1.612 1.253,-2.687 3.223,-2.687c1.075,0 1.791,0.179 2.15,0.537l-0.359,1.254c-0.358,-0.179 -0.895,-0.537 -1.791,-0.537c-1.253,0 -1.791,0.716 -1.791,1.433c0,0.895 0.538,1.253 1.97,1.791c1.612,0.716 2.508,1.432 2.508,2.865c0,1.612 -1.254,2.866 -3.582,2.866c-0.717,-0.179 -1.791,-0.358 -2.328,-0.717Z" style="fill:#010000;fill-rule:nonzero;"/></g></g></svg>