<svg xmlns="http://www.w3.org/2000/svg" width="191.7" height="112.1" viewBox="0 0 191.7 112.1"><path fill="#E63A30" d="M160.9 110c-.2-1.7-.7-5.9-.8-6.3-.1-.5.2-.9.8-1 3.1-.4 5.9-.8 8.3-1.6 2.7-.9 4.9-2.1 6.9-4.3 4-4.2 7.3-13 7.6-31.2.1-3.7.1-12.2.1-21.9 0-17.5-.1-38.9-.1-43 0-.4.4-.7.8-.7h6.5c.4 0 .7.3.7.8 0 4.2.1 25.5.1 42.9 0 9.7 0 18.2-.1 22-.2 14.2-2.1 23.8-5.6 30.6-3.5 6.8-8.8 10.6-14.3 12.3-3.4 1.1-6.8 1.6-10.1 2-.4 0-.7-.1-.8-.6m4.6-42c-.4 4.9-1.8 8.8-4.4 11.6-2.6 2.7-6.2 3.8-9.7 3.8h-.1c-1 0-1.9 0-2.9-.2-4.6-.5-8.6-2.6-11.3-5.8-2.7-3.2-3.9-7.5-4-12 0-1.1 0-2.3.2-3.5.7-6.4 3-11.2 6.4-14.4 3.5-3.2 7.8-4.5 12-4.7h.7c2.5 0 4.8.5 6.8 1.5 1.9 1.1 3.4 2.6 4.4 4.3 2 3.4 2.4 7.2 2.4 10.6 0 3.7-.4 7-.5 8.8m-13.4-17.7c-3 .2-5.4 1-7.4 2.8-1.9 1.8-3.5 4.6-4.1 9.8-.1.9-.1 1.8-.1 2.6 0 3.3.9 5.8 2.3 7.4 1.4 1.7 3.3 2.8 6.4 3.2.7.1 1.4.1 2 .1 2.3 0 3.6-.6 4.6-1.6 1-1 2-3.1 2.3-7 .2-2.1.5-5.1.5-8 0-2.1-.3-4.2-.8-5.7-.6-1.5-1.2-2.4-2.2-2.9-.7-.4-1.6-.6-3.1-.6-.1-.2-.3-.1-.4-.1m-21.4 39c-6-5-9.9-12.6-10-22.1 0-.9 0-1.8.1-2.8.9-15.4 7.2-24.5 14.1-29.1 6.9-4.7 13.9-5.2 16.5-5.2.6 0 1 .4 1 .7 0 .2-.3 4-.4 5.8 0 .5-.4.9-.6.9-1.8 0-7.4.4-12.4 3.9s-10 9.8-10.9 23.5c0 .8-.1 1.5-.1 2.2.1 7.5 3 12.8 7.3 16.5 4.4 3.7 10.4 5.7 16.8 5.6.8 0 1.5 0 2.3-.1 4.1-.4 7.5-1.4 10-3.7 2.5-2.3 4.6-6 5.4-12.7.5-4.3.9-9 .9-13.7-.1-4.7-.6-9.3-1.9-13.3-.1-.3.1-.6.4-.7.2-.1 5.8-2 6-2 .3-.1.6.1.7.4 1.6 5 2.2 10.4 2.2 15.6.1 5.1-.4 10.2-.9 14.6-.9 7.9-3.7 13.7-7.9 17.4-4.2 3.7-9.3 5.1-14.3 5.6-.9.1-1.9.1-2.8.1-7.8 0-15.5-2.4-21.5-7.4m-13.6-7.3c-.5.2-5.6 1.7-6 1.8-.4.1-.7 0-.9-.5-4-13.2-4.8-26.2 1.7-38.3.2-.4.6-.4 1.1-.3 0 0 3.7 2.1 5.3 2.9.4.2.6.6.4 1-5.2 9.7-4.7 20.1-1.1 32.4.1.4 0 .8-.5 1m36.1-17.6c-.3 3.7-.7 6.1-4 6.1-2.9 0-4.6-3.8-4.2-7 .4-3.7 2.2-5.8 4.9-6 3.5-.2 3.5 3.6 3.3 6.9"/><path fill="#232F3C" d="M1.7 98.6h-.6c-.1 0-.2-.1-.2-.2v-5.6l.1-.1.7-.1.1.1v5.7c.1.2 0 .2-.1.2m7.4 0h-1.3c-.1 0-.2-.1-.2-.2l-2.5-5h-.4v5c0 .1-.1.2-.2.2h-.6c-.1 0-.2-.1-.2-.2v-5.6c0-.1.1-.2.2-.2h1.6c.1 0 .2.1.2.2l2.5 5h.1v-5c0-.1.1-.2.2-.2h.6c.1 0 .2.1.2.2v5.6c-.1.2-.1.2-.2.2m3.9.1c-.7 0-1.4-.1-2-.3-.1 0-.1-.1-.1-.2l.1-.5.1-.1c.2 0 1.1.3 1.9.3.7 0 1.4-.2 1.4-.9s-.5-.8-1.3-.9c-.1 0-.3-.1-.5-.1-.4-.1-.9-.2-1.2-.4-.3-.3-.6-.6-.6-1.2 0-1.4 1.2-1.7 2.3-1.7.7 0 1.4.1 1.9.3.1 0 .1.1.1.2l-.1.5c-.2 0-.9-.2-1.8-.2-.7 0-1.4.1-1.4.8 0 .6.6.8 1.3.9.1 0 .3 0 .5.1.4.1.8.1 1.1.3.4.2.7.6.7 1.4 0 1.3-1.2 1.7-2.4 1.7M21.2 93.4c0 .1-.1.2-.2.2h-1.9v4.9c0 .1-.1.2-.2.2h-.6c-.1 0-.2-.1-.2-.2v-4.9h-1.9c-.1 0-.2-.1-.2-.2v-.5c0-.1.1-.2.2-.2h4.8c.1 0 .2.1.2.2v.5zm2 5.2h-.6c-.1 0-.2-.1-.2-.2v-5.6l.1-.1.7-.1.1.1v5.7c.1.2 0 .2-.1.2M29.7 93.4c0 .1-.1.2-.2.2h-1.9v4.9c0 .1-.1.2-.2.2h-.6c-.1 0-.2-.1-.2-.2v-4.9h-1.9c-.1 0-.2-.1-.2-.2v-.5c0-.1.1-.2.2-.2h4.7c.1 0 .2.1.2.2v.5zm6.1 3c0 1.2-.4 2.3-2.5 2.3-1.9 0-2.5-.8-2.5-2.2v-3.6l.1-.1.7-.1.1.1v3.8c0 .9.3 1.4 1.5 1.4 1 0 1.5-.4 1.5-1.3v-3.8l.1-.1.7-.1.1.1v3.6zm6.1-3c0 .1-.1.2-.2.2h-1.9v4.9c0 .1-.1.2-.2.2h-.6c-.1 0-.2-.1-.2-.2v-4.9h-1.9c-.1 0-.2-.1-.2-.2v-.5c0-.1.1-.2.2-.2h4.7c.1 0 .2.1.2.2v.5zm10 5.2h-1.3c-.1 0-.2-.1-.2-.2l-2.5-5h-.3v5c0 .1-.1.2-.2.2h-.6c-.1 0-.2-.1-.2-.2v-5.6c0-.1.1-.2.2-.2h1.6c.1 0 .2.1.2.2l2.5 5h.1v-5c0-.1.1-.2.2-.2h.6c.1 0 .2.1.2.2v5.6c-.2.2-.2.2-.3.2m4.5-5.2h-.3l-.7 2.1h1.8l-.8-2.1zm2.8 5.1l-.1.1h-.8l-.1-.1-.8-2.2h-2.3l-.8 2.2-.1.1h-.8l-.1-.1v-.1l2.1-5.6.1-.1h1.5l.1.1 2.1 5.7M64.2 93.4c0 .1-.1.2-.2.2h-1.9v4.9c0 .1-.1.2-.2.2h-.6c-.1 0-.2-.1-.2-.2v-4.9h-1.9c-.1 0-.2-.1-.2-.2v-.5c0-.1.1-.2.2-.2h4.7c.1 0 .2.1.2.2v.5zm2 5.2h-.6c-.1 0-.2-.1-.2-.2v-5.6l.1-.1.7-.1.1.1v5.7c.1.2 0 .2-.1.2m4.6-5.2c-1.6 0-1.8.8-1.8 2.3 0 1.4.1 2.3 1.8 2.3 1.6 0 1.8-.8 1.8-2.3 0-1.5-.2-2.3-1.8-2.3m0 5.3c-2.3 0-2.8-1.3-2.8-3.1 0-1.7.4-3 2.8-3 2.3 0 2.8 1.3 2.8 3 0 1.8-.5 3.1-2.8 3.1m9.7-.1h-1.3c-.1 0-.2-.1-.2-.2l-2.5-5h-.3v5c0 .1-.1.2-.2.2h-.6c-.1 0-.2-.1-.2-.2v-5.6c0-.1.1-.2.2-.2h1.6c.1 0 .2.1.2.2l2.5 5h.1v-5c0-.1.1-.2.2-.2h.6c.1 0 .2.1.2.2v5.6c-.2.2-.2.2-.3.2m4.5-5.2h-.3l-.7 2.1h1.8l-.8-2.1zm2.8 5.1l-.1.1h-.8l-.1-.1-.8-2.2h-2.3l-.8 2.2-.1.1h-.8l-.1-.1v-.1l2.1-5.6.1-.1h1.4l.1.1 2.2 5.7M89.1 92.9l.1-.1.7-.1.1.1v5h2.8c.1 0 .2.1.2.1v.5c0 .1-.1.2-.2.2h-3.6c-.1 0-.2-.1-.2-.2v-5.5zm-85.9 12.5h-1.3v4.3h1.3c1.3 0 1.9-.2 1.9-2.2 0-1.8-.6-2.1-1.9-2.1m.1 5.2h-2.2c-.1 0-.2-.1-.2-.2v-5.6c0-.1.1-.2.2-.2h2.2c1.8 0 2.8.5 2.8 2.9 0 2.6-1 3.1-2.8 3.1M8.1 105.3l-.1.1h-.5l-.1-.1.3-2.2.2-.1h.8c.1 0 .1.1.1.1v.1l-.7 2.1zm5.3-2.3l-1.5 1.1h-.2l-.3-.4v-.2l1.4-1.1h.2l.4.6m-3.1 1.8c0-.1.1-.2.2-.2h3.7c.1 0 .2.1.2.2v.5c0 .1-.1.2-.2.2h-2.9v1.6h2.8c.1 0 .2.1.2.2v.5c0 .1-.1.2-.2.2h-2.8v1.9h3c.1 0 .2.1.2.1v.5c0 .1-.1.2-.2.2h-3.8c-.1 0-.2-.1-.2-.2v-5.7zm10.1.5c0 .1-.1.2-.2.2h-1.9v4.9c0 .1-.1.2-.2.2h-.6c-.1 0-.2-.1-.2-.2v-4.9h-1.9c-.1 0-.2-.1-.2-.2v-.5c0-.1.1-.2.2-.2h4.7c.1 0 .2.1.2.2v.5zm6.1 3.1c0 1.2-.4 2.3-2.5 2.3-1.9 0-2.5-.8-2.5-2.2v-3.6l.1-.1.7-.1.1.1v3.8c0 .9.3 1.4 1.5 1.4 1 0 1.5-.4 1.5-1.3v-3.8l.1-.1.7-.1.1.1v3.6zm4.1-3h-1.3v4.3h1.3c1.3 0 1.9-.2 1.9-2.2.1-1.8-.5-2.1-1.9-2.1m.1 5.2h-2.2c-.1 0-.2-.1-.2-.2v-5.6c0-.1.1-.2.2-.2h2.2c1.8 0 2.8.5 2.8 2.9 0 2.6-.9 3.1-2.8 3.1M35.2 104.8c0-.1.1-.2.2-.2h3.7c.1 0 .2.1.2.2v.5c0 .1-.1.2-.2.2h-2.9v1.6h2.8c.1 0 .2.1.2.2v.5c0 .1-.1.2-.2.2h-2.8v1.9h3c.1 0 .2.1.2.1v.5c0 .1-.1.2-.2.2h-3.8c-.1 0-.2-.1-.2-.2v-5.7zm7.7 5.8c-.7 0-1.4-.1-2-.3-.1 0-.1-.1-.1-.2l.1-.5.1-.1c.2 0 1.1.3 1.9.3.7 0 1.4-.2 1.4-.9s-.5-.8-1.3-.9c-.1 0-.3-.1-.5-.1-.4-.1-.9-.2-1.2-.4-.3-.3-.6-.6-.6-1.2 0-1.4 1.2-1.7 2.3-1.7.7 0 1.4.1 1.9.3.1 0 .1.1.1.2l-.1.5-.1.1c-.2 0-.9-.2-1.8-.2-.7 0-1.4.1-1.4.8 0 .6.6.8 1.3.9.1 0 .3 0 .5.1.4.1.8.1 1.1.3.4.2.7.6.7 1.4.1 1.3-1.2 1.6-2.3 1.6m9.7-5.2h-1.3v4.3h1.3c1.3 0 1.9-.2 1.9-2.2 0-1.8-.6-2.1-1.9-2.1m.1 5.2h-2.2c-.1 0-.2-.1-.2-.2v-5.6c0-.1.1-.2.2-.2h2.2c1.8 0 2.8.5 2.8 2.9 0 2.6-1 3.1-2.8 3.1M60.2 103l-1.5 1.1h-.2l-.3-.4v-.2l1.4-1.1h.2l.4.6m-3 1.8c0-.1.1-.2.2-.2h3.7c.1 0 .2.1.2.2v.5c0 .1-.1.2-.2.2h-2.9v1.6h2.8c.1 0 .2.1.2.2v.5c0 .1-.1.2-.2.2h-2.8v1.9h3c.1 0 .2.1.2.1v.5c0 .1-.1.2-.2.2h-3.8c-.1 0-.2-.1-.2-.2v-5.7zm12.7 5.6l-.2.1h-.6c-.1 0-.2-.1-.2-.2l-.4-5h-.3l-1.2 3.9c0 .1-.1.2-.2.2h-.9c-.1 0-.2-.1-.2-.2l-1.2-3.9h-.3l-.4 5c0 .1-.1.2-.2.2h-.6l-.2-.1.5-5.6c0-.1.1-.2.2-.2h1.6l.2.2 1 3.8 1-3.8c0-.1.1-.2.2-.2h1.5c.1 0 .2.1.2.2l.7 5.6zm4.2-5c-1.6 0-1.8.8-1.8 2.3 0 1.4.1 2.3 1.8 2.3 1.6 0 1.8-.8 1.8-2.3 0-1.5-.2-2.3-1.8-2.3m0 5.3c-2.3 0-2.8-1.3-2.8-3.1 0-1.7.4-3 2.8-3 2.3 0 2.8 1.3 2.8 3 0 1.8-.5 3.1-2.8 3.1M83.2 105.6l-.1.1h-.1c-.6-.1-1-.3-1.9-.3-1.5 0-1.9.6-1.9 2.3 0 1.7.4 2.3 2 2.3.5 0 1-.1 1.1-.1v-1.9l-1-.1-.1-.1v-.6l.1-.1h1.8c.1 0 .2.1.2.2v2.4c0 .4 0 .7-.4.8-.4.2-1.3.2-1.6.2-2.2 0-2.9-.8-2.9-3 0-2 .6-3.1 2.8-3.1 1.1 0 2 .3 2.1.3.1 0 .1.1.1.2v.1l-.2.4zm4.7-.1h-1.9v2l1.5-.1c.8 0 1.3-.2 1.3-1 0-.6-.2-.9-.9-.9m2 4.9l-.1.1h-.7c-.1 0-.2 0-.2-.1l-.1-1.2c0-.7-.4-.9-1.3-.9l-1.6-.1v2.2c0 .1-.1.2-.2.2h-.6c-.1 0-.2-.1-.2-.2v-5.6c0-.1.1-.2.2-.2h2.7c1.2 0 1.9.4 1.9 1.7 0 .8-.3 1.3-1.3 1.4v.2c.6.1 1.3.2 1.3 1.4l.2 1.1zm4.3-5h-.3l-.7 2.1h1.8l-.8-2.1zm2.8 5.1l-.1.1h-.8l-.1-.1-.8-2.2h-2.3l-.8 2.2-.1.1h-.8l-.1-.1v-.1l2.1-5.6.1-.1h1.4l.1.1 2.2 5.7m4.8-4.8c-.2-.2-.5-.2-.9-.2h-1.6v2.2l1.2-.1c.4 0 1 0 1.3-.3.2-.1.3-.4.3-.8-.1-.4-.2-.7-.3-.8m.7 2.1c-.4.4-1.2.5-1.8.5h-1.6v2.1c0 .1-.1.2-.2.2h-.7c-.1 0-.2-.1-.2-.2v-5.6c0-.1.1-.2.2-.2h2.6c.6 0 1.2.1 1.5.5.3.3.4.7.4 1.3.3.5.2 1-.2 1.4m6.9 2.8h-.6c-.1 0-.2-.1-.2-.2v-2.5h-3.2v2.5c0 .1-.1.2-.2.2h-.6c-.1 0-.2-.1-.2-.2v-5.6l.1-.1.7-.1.1.1v2.4h3.2v-2.3l.1-.1.7-.1.1.1v5.7c.2.1.1.2 0 .2m2.9 0h-.6c-.1 0-.2-.1-.2-.2v-5.6l.1-.1.7-.1.1.1v5.7c0 .1 0 .2-.1.2m4.5-5.2c-1.6 0-1.8.8-1.8 2.3 0 1.4.1 2.3 1.8 2.3 1.6 0 1.8-.8 1.8-2.3 0-1.5-.1-2.3-1.8-2.3m.5 5.3l.1.6h1.3c.1 0 .2.1.2.2v.4c0 .1-.1.2-.2.2h-1c-.9 0-1.1-.8-1.3-1.5-1.9-.2-2.3-1.4-2.3-3 0-1.8.4-3.1 2.8-3.1 2.3 0 2.8 1.3 2.8 3.1-.1 1.7-.5 2.9-2.4 3.1M126.1 108.4c0 1.2-.4 2.3-2.5 2.3-1.9 0-2.5-.8-2.5-2.2v-3.6l.1-.1.7-.1.1.1v3.8c0 .9.3 1.4 1.5 1.4 1 0 1.5-.4 1.5-1.3v-3.8l.1-.1.7-.1.1.1v3.6zm1.8-3.6c0-.1.1-.2.2-.2h3.7c.1 0 .2.1.2.2v.5c0 .1-.1.2-.2.2h-2.9v1.6h2.8c.1 0 .2.1.2.2v.5c0 .1-.1.2-.2.2h-2.8v1.9h3c.1 0 .2.1.2.1v.5c0 .1-.1.2-.2.2h-3.8c-.1 0-.2-.1-.2-.2v-5.7zm7.7 5.8c-.7 0-1.4-.1-2-.3-.1 0-.1-.1-.1-.2l.1-.5.1-.1c.2 0 1.1.3 1.9.3.7 0 1.4-.2 1.4-.9s-.5-.8-1.3-.9c-.1 0-.3-.1-.5-.1-.4-.1-.9-.2-1.2-.4-.3-.3-.6-.6-.6-1.2 0-1.4 1.2-1.7 2.3-1.7.7 0 1.4.1 1.9.3.1 0 .1.1.1.2l-.1.5-.1.1c-.2 0-.9-.2-1.8-.2-.7 0-1.4.1-1.4.8 0 .6.6.8 1.3.9.1 0 .3 0 .5.1.4.1.8.1 1.1.3.4.2.7.6.7 1.4.1 1.3-1.1 1.6-2.3 1.6m-130.3-52h-4.1c-.8 0-1.2-.3-1.2-1.1v-4.9c0-.8.4-1.1 1.2-1.1h4.1c.8 0 1.2.3 1.2 1.1v4.9c0 .8-.4 1.1-1.2 1.1m.5 24.7h-5.1c-.4 0-.7-.3-.7-.6v-20.4c0-.4.3-.6.7-.6h5.1c.4 0 .7.3.7.6v20.4c0 .3-.3.6-.7.6m29.6 0h-5.1c-.4 0-.7-.3-.7-.6v-14.7c0-2.3-.9-3.1-2.9-3.1l-4.3.5v17.2c0 .4-.3.6-.7.6h-5.1c-.4 0-.7-.3-.7-.6v-18.3c0-1.6 1.1-2.1 3.5-2.7 2.1-.5 5.4-1 8.1-1 5.4 0 8.6 1.3 8.6 6.5v15.5c0 .4-.3.7-.7.7m23.5-12.5c0-1.1-.1-2.1-.3-3-.5-2.2-1.6-2.9-3.8-2.9-2.7 0-3.6.8-4 2.7-.2 1.1-.2 2.2-.3 3.4h8.3v-.2zm6.3 3.1c0 .5-.2 1.1-1 1.1h-13.6c0 1.8.6 2.8 1.8 3.6 1.1.6 2.5.9 4.6.9 2.6 0 4.7-.7 5.8-1h.1c.3 0 .5.2.7.7l.5 2.3v.3c0 .4-.2.6-.5.7-1.4.5-4.3 1.4-7.8 1.4-8.2 0-11.7-3-11.7-11.5 0-8.2 2.4-11.7 10.6-11.7 4.2 0 6.8 1 8.4 2.9 1.6 1.9 2.1 4.7 2.1 8.4.1.4 0 1.3 0 1.9m21.9-8.5s-1.9-.4-3.4-.4c-3.2 0-4.3.6-4.3 7 0 6.7 1.3 7.4 4.6 7.4 1.6 0 3.2-.4 3.2-.4v-13.6zm4 17.5c-2 .6-4.6 1-7.3 1-8.3 0-11.1-2.6-11.1-11.4 0-7.3 1.7-11.8 9.1-11.8 3 0 5.2.7 5.7.8l-.5-2.6v-5.4c0-.6.2-.9.8-1l4.8-.8h.3c.4 0 .7.2.7.7v27.3c0 1-.1 2.5-2.5 3.2"/></svg>