<svg xmlns="http://www.w3.org/2000/svg" xmlns:xlink="http://www.w3.org/1999/xlink" viewBox="0 0 558.065 140.633" enable-background="new 0 0 558.065 140.633"><g opacity=".5"><defs><path id="a" opacity=".5" d="M0 0h558.065v140.633h-558.065z"/></defs><clipPath id="b"><use xlink:href="#a" overflow="visible"/></clipPath><g clip-path="url(#b)" fill="#D9D8DB"><path d="M438.348 28.711c-5.533-2.572-19.545-9.1-21.014-9.796-1.826-.866-2.512-2.31-1.574-4.551 4.732-10.266 8.803-19.897 11.031-29.028 2.434-10.118 2.869-19.4.061-29.72-5.404-20.395-26.29-47.942-82.118-83.701-11.253-7.232-26.704-16.933-56.836-35.693-54.353-33.847-42.005-25.914-54.692-33.775-1.391-.854-1.365-2.504-.673-3.714.689-1.211 11.649-18.851 12.423-20.072.771-1.211 2.177-1.696 3.704-.75 13.151 8.145.476.018 54.565 33.705 30.191 18.799 45.584 28.453 57.178 35.896 43.736 28.159 69.727 52.619 84.08 76.618 14.509 23.933 15.67 47.861 10.468 68.104-3.125 12.679-8.213 24.211-13.296 35.214-.587 1.093-1.403 2.052-3.307 1.263M225.1-55.009c-4.959 9.669-6.842 19.051-4.811 28.294 2.067 9.216 8.186 19.61 23.36 30.879 2.664 1.979 5.322 3.701 7.927 5.18 10.577 5.961 19.94 7.71 27.741 6.447 7.793-1.322 14.891-5.365 21.721-14.393 1.552-2.086 2.875-4.105 3.961-6.021 4.053-7.359 4.79-12.492 3.413-17.603-1.399-5.141-6.016-12.145-17.78-20.266-6.401-4.43-15.039-11.005-24.393-16.293-6.691-3.813-13.644-6.792-19.383-7.869-5.854-1.064-9.77-.511-13.257 1.543-2.357 1.431-4.983 3.866-7.739 8.69-.238.415-.482.884-.76 1.412m80.986-9.925c15.217 9.529 24.56 21.871 28.359 35.318 3.779 13.322.539 26.732-5.726 37.797l-.255.441c-1.717 3.039-3.673 5.977-5.794 8.84-10.088 13.673-23.92 22.56-39.078 24.927-15.154 2.429-30.771-1.372-45.284-9.603-3.61-2.042-7.184-4.369-10.682-6.963-18.854-13.839-29.977-29.941-33.658-46.736-3.707-16.786.167-32.949 7.188-46.465.404-.762.816-1.538 1.256-2.314 4.537-8.044 10.414-14.396 17.326-18.525 6.895-4.162 14.553-5.902 21.716-5.91 14.42.052 27.189 5.662 38.138 11.77 11.308 6.409 20.877 13.904 26.49 17.42l.004.003zm3.029 149.203c-26.678 9.747-58.184 8.104-88.313-9.08-2.879-1.632-5.743-3.398-8.587-5.303-47.002-31.039-64.14-67.738-66.115-98.238-2.118-30.454 9.262-53.477 13.902-61.773 1.118-1.969 2.994-2.589 4.259-1.902.578.313 12.198 8.144 17.593 11.787 1.646 1.099 2.097 2.811 1.728 3.461-3.236 5.617-12.157 24.125-10.464 46.483 1.82 22.289 12.598 49.671 54.147 77.656 2.294 1.54 4.597 2.952 6.883 4.244 24.069 13.489 46.06 14.167 65.781 7.18 19.664-7.054 37.049-22.629 48.526-42.937 1.359-2.395 2.632-4.852 3.81-7.352 6.411-13.61 9.21-26.323 6.709-38.529-2.52-12.183-10.35-25.595-30.125-40.554-12.742-9.587-26.906-19.543-41.676-27.902-14.951-8.466-30.5-15.255-45.59-18.585-1.238-.252-1.605-1.359-1.457-2.32.148-.96 4.428-21.956 4.618-22.693.178-1.104 1.509-1.648 2.452-1.483 18.846 4.138 36.738 12.128 53.323 21.51 16.31 9.232 31.365 19.864 44.61 29.81 23.318 17.452 36.374 36.805 40.393 56.822 4.057 19.995-.928 38.929-8.757 55.482-1.467 3.123-3.051 6.17-4.736 9.143-14.284 25.201-36.182 45.406-62.914 55.073m-91.662 15.489c-.775 1.865-9.541 19.127-10.243 20.381-.711 1.25-1.866 1.967-3.497 1.038-44.93-22.875-81.408-53.526-97.184-101.17-.481-1.45.45-2.825 1.944-3.493 0 0 14.928-4.654 21.185-6.606 1.659-.518 2.932-.106 3.464 1.502 12.659 38.242 41.388 63.262 83.018 84.708 1.192.68 2.08 1.771 1.313 3.64m54.095-133.904c11.157 7.999 17.517 13.833 11.282 24.249-5.535 9.24-20.442 7.069-30.061-.246-10.898-8.284-13.8-17.943-9.114-26.737 6.125-11.497 18.075-4.308 27.893 2.734"/></g></g></svg>