<?xml version="1.0" encoding="utf-8"?>
<!-- Generator: Adobe Illustrator 20.0.0, SVG Export Plug-In . SVG Version: 6.00 Build 0)  -->
<svg version="1.1" id="Layer_1" xmlns="http://www.w3.org/2000/svg" xmlns:xlink="http://www.w3.org/1999/xlink" x="0px" y="0px"
	 viewBox="0 0 558.1 140.6" style="enable-background:new 0 0 558.1 140.6;" xml:space="preserve">
<style type="text/css">
	.st0{opacity:0.5;enable-background:new    ;}
	.st1{clip-path:url(#SVGID_2_);}
	.st2{fill:#D9D8DB;}
</style>
<g class="st0">
	<g>
		<defs>
			<rect id="SVGID_1_" width="558.1" height="140.6"/>
		</defs>
		<clipPath id="SVGID_2_">
			<use xlink:href="#SVGID_1_"  style="overflow:visible;"/>
		</clipPath>
		<g class="st1">
			<path class="st2" d="M438.3,96.3c1.9-0.8,2.7,0.2,3.3,1.3c5.1,11,10.2,22.5,13.3,35.2c5.2,20.2,4,44.2-10.5,68.1
				c-14.4,24-40.3,48.5-84.1,76.6c-11.6,7.4-27,17.1-57.2,35.9c-54.1,33.7-41.4,25.6-54.6,33.7c-1.5,0.9-2.9,0.5-3.7-0.8
				c-0.8-1.2-11.7-18.9-12.4-20.1c-0.7-1.2-0.7-2.9,0.7-3.7c12.7-7.9,0.3,0.1,54.7-33.8c30.1-18.8,45.6-28.5,56.8-35.7
				c55.8-35.8,76.7-63.3,82.1-83.7c2.8-10.3,2.4-19.6-0.1-29.7c-2.2-9.1-6.3-18.8-11-29c-0.9-2.2-0.3-3.7,1.6-4.6
				C418.8,105.4,432.8,98.9,438.3,96.3 M225.1,180c0.3,0.5,0.5,1,0.8,1.4c2.8,4.8,5.4,7.3,7.7,8.7c3.5,2.1,7.4,2.6,13.3,1.5
				c5.7-1.1,12.7-4.1,19.4-7.9c9.4-5.3,18-11.9,24.4-16.3c11.8-8.1,16.4-15.1,17.8-20.3c1.4-5.1,0.6-10.2-3.4-17.6
				c-1.1-1.9-2.4-3.9-4-6c-6.8-9-13.9-13.1-21.7-14.4c-7.8-1.3-17.2,0.5-27.7,6.4c-2.6,1.5-5.3,3.2-7.9,5.2
				c-15.2,11.3-21.3,21.7-23.4,30.9C218.3,161,220.1,170.4,225.1,180 M306.1,189.9L306.1,189.9c-5.6,3.5-15.2,11-26.5,17.4
				c-10.9,6.1-23.7,11.7-38.1,11.8c-7.2,0-14.8-1.7-21.7-5.9c-6.9-4.1-12.8-10.5-17.3-18.5c-0.4-0.8-0.9-1.6-1.3-2.3
				c-7-13.5-10.9-29.7-7.2-46.5c3.7-16.8,14.8-32.9,33.7-46.7c3.5-2.6,7.1-4.9,10.7-7c14.5-8.2,30.1-12,45.3-9.6
				c15.2,2.4,29,11.3,39.1,24.9c2.1,2.9,4.1,5.8,5.8,8.8l0.3,0.4c6.3,11.1,9.5,24.5,5.7,37.8C330.6,168.1,321.3,180.4,306.1,189.9
				L306.1,189.9z M309.1,40.7c26.7,9.7,48.6,29.9,62.9,55.1c1.7,3,3.3,6,4.7,9.1c7.8,16.6,12.8,35.5,8.8,55.5
				c-4,20-17.1,39.4-40.4,56.8c-13.2,9.9-28.3,20.6-44.6,29.8c-16.6,9.4-34.5,17.4-53.3,21.5c-0.9,0.2-2.3-0.4-2.5-1.5
				c-0.2-0.7-4.5-21.7-4.6-22.7c-0.1-1,0.2-2.1,1.5-2.3c15.1-3.3,30.6-10.1,45.6-18.6c14.8-8.4,28.9-18.3,41.7-27.9
				c19.8-15,27.6-28.4,30.1-40.6c2.5-12.2-0.3-24.9-6.7-38.5c-1.2-2.5-2.5-5-3.8-7.4c-11.5-20.3-28.9-35.9-48.5-42.9
				c-19.7-7-41.7-6.3-65.8,7.2c-2.3,1.3-4.6,2.7-6.9,4.2c-41.5,28-52.3,55.4-54.1,77.7c-1.7,22.4,7.2,40.9,10.5,46.5
				c0.4,0.6-0.1,2.4-1.7,3.5c-5.4,3.6-17,11.5-17.6,11.8c-1.3,0.7-3.1,0.1-4.3-1.9c-4.6-8.3-16-31.3-13.9-61.8
				c2-30.5,19.1-67.2,66.1-98.2c2.8-1.9,5.7-3.7,8.6-5.3C250.9,32.6,282.4,31,309.1,40.7 M217.5,25.3c0.8,1.9-0.1,3-1.3,3.6
				c-41.6,21.4-70.4,46.5-83,84.7c-0.5,1.6-1.8,2-3.5,1.5c-6.3-2-21.2-6.6-21.2-6.6c-1.5-0.7-2.4-2-1.9-3.5
				c15.8-47.6,52.3-78.3,97.2-101.2c1.6-0.9,2.8-0.2,3.5,1C207.9,6.1,216.7,23.4,217.5,25.3 M271.5,159.2c-9.8,7-21.8,14.2-27.9,2.7
				c-4.7-8.8-1.8-18.5,9.1-26.7c9.6-7.3,24.5-9.5,30.1-0.2C289.1,145.3,282.7,151.2,271.5,159.2"/>
		</g>
	</g>
</g>
</svg>
